<svg xmlns="http://www.w3.org/2000/svg" viewBox="0 0 282.51 45.67">
  <g id="Layer_2">
    <g id="Ebene_1">
      <path class="cls-1"
            d="M40.31,42.83a9.37,9.37,0,0,1-2.52.32c-2.83,0-7.93-.95-10.71-8.19l-1.57-4.1H7.87l-5,12H0L17.64,1.26h1.89L33.38,35c2,4.72,3.47,6.3,6.93,6.61ZM8.82,28.34H24.25L16.69,10.08Z"/>
      <path class="cls-1"
            d="M94,45.67c-9.14,0-11.66-4.1-11.66-13.55V7.87l-15.74,35H65.33L49,7.24V42.83H46.43V1.26h6L67.53,34,82.33,1.26H88V32.12c0,7.56,1.89,12.29,6,12.29Z"/>
      <path class="cls-1"
            d="M116.68,0c12,0,19.52,9.7,19.52,22.05s-7.56,22-19.52,22-19.53-9.7-19.53-22S104.71,0,116.68,0Zm0,2.52c-8.19,0-13.23,7.56-13.23,19.53s5,19.52,13.23,19.52S129.9,34,129.9,22.05,124.87,2.52,116.68,2.52Z"/>
      <path class="cls-1"
            d="M160.13,34c8.45-19.4,3.72-8.69,13.86-32.75h3l-18.08,42.2H157.8L143.19,8.63c-1.95-4.72-3.46-6.3-6.93-6.61V.76c.32,0,1.58-.13,2.14-.13,3.09,0,8,.82,11,8Z"/>
      <path class="cls-1" d="M185.15,1.26h5.67v34c0,3.78.63,6.3,4.41,6.3h1.26v1.26h-5.67c-4.41,0-5.67-1.26-5.67-7.56Z"/>
      <path class="cls-1"
            d="M204.29,8.82c0-3.78-1.26-6.3-5.67-6.3H198V1.26h4.1c4.09,0,6.61,1.45,8.5,3.78l22,27.4V1.26h2.52v42.2h-1.26L206.81,9.76V42.83h-2.52Z"/>
      <path class="cls-1"
            d="M263,0c12,0,19.53,9.7,19.53,22.05s-7.56,22-19.53,22-19.53-9.7-19.53-22S251,0,263,0Zm0,2.52c-8.19,0-13.23,7.56-13.23,19.53s5,19.52,13.23,19.52S276.21,34,276.21,22.05,271.17,2.52,263,2.52Z"/>
    </g>
  </g>
</svg>