<svg width="420" height="98" viewBox="0 0 420 98" fill="currentColor" xmlns="http://www.w3.org/2000/svg">
<path d="M73.4375 47.976C73.4375 54.888 72.4135 61.3733 70.3655 67.432C68.3175 73.4907 65.5015 78.7387 61.9175 83.176C58.4188 87.528 54.3228 90.984 49.6295 93.544C44.9362 96.0187 39.9015 97.1707 34.5255 97C33.8428 97 32.9895 97 31.9655 97C31.0268 97 29.4055 97 27.1015 97C24.7975 97 21.5548 97 17.3735 97C13.2775 97 7.6455 97 0.4775 97V0.999992H26.5895C34.0988 0.999992 40.7548 2.10933 46.5575 4.328C52.3602 6.46133 57.2242 9.57599 61.1495 13.672C65.1602 17.6827 68.1895 22.5893 70.2375 28.392C72.3708 34.1947 73.4375 40.7227 73.4375 47.976ZM22.6215 9.70399C21.0002 9.70399 19.6775 9.832 18.6535 10.088C17.7148 10.2587 16.9895 10.6853 16.4775 11.368C15.5388 13.5867 15.0695 17.0853 15.0695 21.864V70.76C15.0695 75.7093 15.1548 79.6347 15.3255 82.536C15.5815 85.4373 16.3922 87.5707 17.7575 88.936C24.2428 90.0453 29.7468 90.2587 34.2695 89.576C38.8775 88.8933 42.6748 87.6133 45.6615 85.736C48.6482 83.7733 50.9948 81.3413 52.7015 78.44C54.4082 75.5387 55.6882 72.4667 56.5415 69.224C57.3948 65.896 57.9068 62.568 58.0775 59.24C58.2482 55.8267 58.3335 52.6267 58.3335 49.64C58.3335 36.6693 55.3042 26.7707 49.2455 19.944C43.2722 13.1173 34.3975 9.70399 22.6215 9.70399ZM145.421 69.096H97.8045C98.0605 71.4 98.5298 73.7893 99.2125 76.264C99.9805 78.7387 101.133 81 102.669 83.048C104.29 85.096 106.381 86.8027 108.941 88.168C111.501 89.5333 114.701 90.216 118.541 90.216C121.698 90.216 125.965 89.4907 131.341 88.04L132.365 92.264C129.719 93.4587 127.031 94.568 124.301 95.592C121.57 96.616 118.711 97.0427 115.725 96.872C111.202 96.872 107.021 96.104 103.181 94.568C99.4258 93.032 96.1405 90.8987 93.3245 88.168C90.5085 85.352 88.2472 82.024 86.5405 78.184C84.9192 74.344 84.0232 70.12 83.8525 65.512C83.8525 61.2453 84.6205 57.2347 86.1565 53.48C87.6925 49.7253 89.8258 46.44 92.5565 43.624C95.3725 40.7227 98.6578 38.4187 102.413 36.712C106.167 35.0053 110.263 34.0667 114.701 33.896C119.394 33.9813 123.661 34.8773 127.501 36.584C131.341 38.2053 134.626 40.4667 137.357 43.368C140.087 46.184 142.178 49.512 143.629 53.352C145.079 57.1067 145.719 61.0747 145.549 65.256C145.549 65.6827 145.506 66.3227 145.421 67.176C145.421 67.944 145.421 68.584 145.421 69.096ZM114.189 41.192C111.629 41.192 109.367 41.7893 107.405 42.984C105.527 44.0933 103.906 45.5867 102.541 47.464C101.261 49.256 100.237 51.3467 99.4685 53.736C98.7005 56.1253 98.1885 58.6 97.9325 61.16H131.469C130.786 54.1627 128.951 49.0853 125.965 45.928C122.978 42.7707 119.138 41.192 114.444 41.192H114.189ZM254.267 62.696C254.267 58.4293 253.925 54.888 253.243 52.072C252.56 49.1707 251.536 46.8667 250.171 45.16C248.805 43.4533 247.099 42.2587 245.051 41.576C243.003 40.808 240.656 40.4667 238.011 40.552C235.365 40.4667 232.933 40.7653 230.715 41.448C228.496 42.1307 226.576 43.3253 224.955 45.032C223.419 46.7387 222.224 49.0427 221.371 51.944C220.517 54.8453 220.09 58.4293 220.09 62.696C220.09 63.0373 220.09 63.5493 220.09 64.232C220.176 64.9147 220.219 66.3653 220.219 68.584C220.219 70.8027 220.219 74.1307 220.219 78.568C220.219 83.0053 220.219 89.1067 220.219 96.872H205.499V62.952C205.499 58.7707 205.115 55.272 204.347 52.456C203.664 49.64 202.64 47.3787 201.275 45.672C199.909 43.9653 198.203 42.7707 196.155 42.088C194.192 41.32 191.888 40.9787 189.243 41.064C186.597 40.9787 184.165 41.2773 181.947 41.96C179.728 42.6427 177.808 43.8373 176.187 45.544C174.651 47.2507 173.456 49.5547 172.603 52.456C171.749 55.3573 171.323 58.9413 171.323 63.208V96.872H156.603V67.176C156.603 56.7653 159.333 48.5733 164.795 42.6C170.341 36.5413 178.277 33.512 188.603 33.512C194.405 33.512 199.312 34.3227 203.323 35.944C207.333 37.48 210.576 39.7413 213.051 42.728C215.781 39.5707 219.152 37.1813 223.163 35.56C227.259 33.8533 231.995 33 237.371 33C243.088 33 247.952 33.8107 251.963 35.432C255.973 36.968 259.216 39.1867 261.691 42.088C264.251 44.9893 266.085 48.5307 267.195 52.712C268.389 56.808 268.987 61.4587 268.987 66.664V96.872H254.267V62.696ZM294.573 67.304C294.573 71.5707 294.914 75.1547 295.597 78.056C296.279 80.872 297.303 83.1333 298.669 84.84C300.034 86.5467 301.741 87.784 303.789 88.552C305.837 89.2347 308.183 89.5333 310.829 89.448C313.474 89.5333 315.906 89.2347 318.125 88.552C320.343 87.8693 322.221 86.6747 323.757 84.968C325.378 83.2613 326.615 80.9573 327.469 78.056C328.322 75.1547 328.749 71.5707 328.749 67.304V32.872H343.469V63.336C343.469 73.7467 340.695 81.9813 335.149 88.04C329.687 94.0133 321.794 97 311.469 97C305.751 97 300.887 96.232 296.877 94.696C292.866 93.0747 289.581 90.8133 287.021 87.912C284.546 85.0107 282.711 81.512 281.517 77.416C280.407 73.2347 279.853 68.5413 279.853 63.336V32.872H294.573V67.304ZM419.632 65C419.462 69.9493 418.737 74.3867 417.457 78.312C416.177 82.2373 414.214 85.608 411.569 88.424C408.923 91.1547 405.51 93.288 401.329 94.824C397.233 96.2747 392.241 97 386.353 97C380.721 97 375.942 96.2747 372.017 94.824C368.091 93.288 364.849 91.1547 362.289 88.424C359.729 85.608 357.809 82.2373 356.529 78.312C355.249 74.3867 354.523 69.9493 354.353 65C354.523 60.0507 355.249 55.5707 356.529 51.56C357.809 47.5493 359.729 44.136 362.289 41.32C364.849 38.4187 368.091 36.2 372.017 34.664C375.942 33.0427 380.721 32.232 386.353 32.232C390.193 32.232 393.563 32.7013 396.465 33.64C399.451 34.4933 402.182 35.5173 404.657 36.712L404.913 0.871994H419.632C419.632 5.736 419.632 10.6853 419.632 15.72C419.632 20.7547 419.632 25.6187 419.632 30.312C419.632 35.0053 419.632 39.4427 419.632 43.624C419.632 47.72 419.632 51.3467 419.632 54.504C419.632 57.6613 419.632 60.1787 419.632 62.056C419.632 63.9333 419.632 64.9147 419.632 65ZM404.913 62.824C404.913 58.5573 404.486 54.9733 403.633 52.072C402.779 49.0853 401.542 46.696 399.921 44.904C398.385 43.0267 396.507 41.704 394.289 40.936C392.07 40.0827 389.638 39.6987 386.993 39.784C384.347 39.6987 381.915 40.04 379.697 40.808C377.478 41.576 375.558 42.8987 373.937 44.776C372.401 46.568 371.206 48.9573 370.353 51.944C369.499 54.9307 369.073 58.5573 369.073 62.824V67.304C369.073 71.5707 369.499 75.1547 370.353 78.056C371.206 80.9573 372.401 83.2613 373.937 84.968C375.558 86.6747 377.478 87.8693 379.697 88.552C381.915 89.2347 384.347 89.5333 386.993 89.448C389.638 89.5333 392.07 89.2347 394.289 88.552C396.507 87.784 398.385 86.5467 399.921 84.84C401.542 83.1333 402.779 80.872 403.633 78.056C404.486 75.1547 404.913 71.5707 404.913 67.304V62.824Z"/>
</svg>
