<svg width="231" height="17" viewBox="0 0 231 17" fill="none" xmlns="http://www.w3.org/2000/svg">
<path d="M4.98819 4.82678L-1.74811e-06 15.1786L1.69091 17L11.1882 7.13393L7.32727 15.1786L9.01818 17L18.5155 7.13393L14.6545 15.1786L16.3455 17L25.8427 7.13393L21.9818 15.1786L23.6727 17L31 11.5357L29.3091 9.71429L25.9836 12.1732L31 1.82143L29.3091 1.75952e-06L19.7836 9.86607L23.6727 1.82143L21.9818 1.11895e-06L12.4564 9.86607L16.3455 1.82143L14.6545 4.78383e-07L5.12909 9.86607L9.01818 1.82143L7.32727 -1.62187e-07L-8.98865e-07 5.46428L1.69091 7.28571L4.98819 4.82678Z" fill="black"/>
<path d="M76.3239 16.6863L75.6621 13.7252H71.3428L70.6809 16.6863H67.0234L71.3079 0.522339H75.9059L80.1556 16.6863H76.3239ZM73.5373 4.00594H73.4328L71.7259 10.8686H75.1744L73.5373 4.00594Z" fill="black"/>
<path d="M182.636 16.6863L181.975 13.7252H177.655L176.993 16.6863H173.336L177.62 0.522339H182.218L186.468 16.6863H182.636ZM179.885 4.00594H179.78L178.073 10.8686H181.522L179.885 4.00594Z" fill="black"/>
<path d="M90.0472 16.6863L84.8918 6.82766H84.8222L84.9267 16.6863H81.6523V0.522339H85.3098L90.4304 10.5203H90.5L90.4304 0.522339H93.6002V16.6863H90.0472V16.6863Z" fill="black"/>
<path d="M104.991 16.6863L99.8352 7.17602H99.7655L99.87 16.6863H96.5957V0.522339H100.253L105.374 10.1719H105.443L105.374 0.522339H108.544V16.6863H104.991V16.6863Z" fill="black"/>
<path d="M111.506 16.6863V0.522339H120.354V3.72725H114.989V6.89734H120.005V9.92807H114.989V13.4117H120.667V16.6863H111.506Z" fill="black"/>
<path d="M131.046 16.6863L128.19 10.2416H127.11V16.6863H123.592V0.522339H128.782C130.349 0.522339 131.569 0.940372 132.439 1.7416C133.31 2.54283 133.728 3.76209 133.728 5.39939C133.728 5.9916 133.659 6.51414 133.519 7.00184C133.38 7.48955 133.206 7.87275 132.997 8.22111C132.788 8.56947 132.544 8.84816 132.265 9.05717C131.987 9.26619 131.743 9.40553 131.464 9.51004L134.913 16.7211H131.046V16.6863ZM130.14 5.57357C130.14 5.15553 130.071 4.84201 129.966 4.56332C129.862 4.31947 129.688 4.11045 129.513 3.93627C129.339 3.79693 129.13 3.69242 128.921 3.62275C128.712 3.55308 128.468 3.55307 128.259 3.55307H127.11V7.62889H128.19C128.712 7.62889 129.165 7.45471 129.548 7.14119C129.931 6.82766 130.14 6.30512 130.14 5.57357Z" fill="black"/>
<path d="M206.811 16.6863V0.522339H215.658V3.72725H210.294V6.89734H215.31V9.92807H210.294V13.4117H215.937V16.6863H206.811Z" fill="black"/>
<path d="M226.351 16.6863L223.494 10.2416H222.415V16.6863H218.896V0.522339H224.087C225.654 0.522339 226.873 0.940372 227.744 1.7416C228.615 2.54283 229.033 3.76209 229.033 5.39939C229.033 5.9916 228.963 6.51414 228.824 7.00184C228.685 7.48955 228.51 7.87275 228.301 8.22111C228.092 8.56947 227.849 8.84816 227.57 9.05717C227.291 9.26619 227.047 9.40553 226.769 9.51004L230.217 16.7211H226.351V16.6863ZM225.41 5.57357C225.41 5.15553 225.341 4.84201 225.236 4.56332C225.132 4.31947 224.957 4.11045 224.783 3.93627C224.609 3.79693 224.4 3.69242 224.191 3.62275C223.982 3.55308 223.738 3.55307 223.529 3.55307H222.38V7.62889H223.46C223.982 7.62889 224.435 7.45471 224.818 7.14119C225.201 6.82766 225.41 6.30512 225.41 5.57357Z" fill="black"/>
<path d="M186.396 0.488037V3.58845H189.357V16.6868H192.945V3.58845H198.379V16.6868H201.967V3.58845H204.928V0.488037H186.396Z" fill="black"/>
<path d="M58.315 7.45525L61.9725 0.488037H65.5603V16.6868H62.3557V6.61918H62.286L58.315 14.0393H58.2453L54.2743 6.61918H54.2047V16.6868H51V0.488037H54.553L58.2453 7.45525H58.315Z" fill="black"/>
<path d="M164.626 7.45525L168.283 0.488037H171.871V16.6868H168.666V6.61918H168.597L164.626 14.0393H164.556L160.585 6.61918H160.515V16.6868H157.311V0.488037H160.898L164.556 7.45525H164.626Z" fill="black"/>
<path d="M148.29 16.6865L147.35 15.3279C147.036 15.8156 146.583 16.1988 146.026 16.5123C145.434 16.8258 144.737 17 143.901 17C142.473 17 141.358 16.582 140.557 15.7459C139.721 14.9098 139.338 13.6906 139.338 12.123C139.338 11.043 139.582 10.1025 140.104 9.3709C140.592 8.63934 141.254 8.04713 142.02 7.6291C141.672 7.14139 141.358 6.61885 141.149 6.06148C140.94 5.5041 140.836 4.91188 140.836 4.25C140.836 3.58811 140.94 2.9959 141.184 2.47336C141.393 1.95082 141.707 1.49795 142.09 1.14959C142.473 0.801231 142.926 0.487705 143.448 0.313525C143.971 0.104509 144.528 0 145.155 0C145.747 0 146.27 0.104509 146.757 0.27869C147.245 0.45287 147.663 0.696721 148.011 1.04508C148.36 1.39344 148.638 1.81147 148.847 2.29918C149.056 2.78688 149.161 3.34426 149.161 4.00615C149.161 4.52869 149.091 4.98156 148.917 5.39959C148.743 5.81762 148.534 6.20082 148.255 6.54918C147.977 6.89754 147.663 7.21106 147.315 7.48975C146.966 7.76844 146.583 8.04713 146.2 8.29098L147.559 10.1721L148.673 7.76844H152.122L149.509 12.6455L152.4 16.6516H148.29V16.6865ZM143.553 9.92828C143.344 10.0676 143.135 10.2766 142.926 10.625C142.717 10.9734 142.612 11.3914 142.612 11.9139C142.612 12.541 142.752 13.0635 143.03 13.4467C143.309 13.8299 143.692 14.0041 144.18 14.0041C144.563 14.0041 144.876 13.8996 145.12 13.6557C145.364 13.4119 145.503 13.168 145.608 12.9242L143.553 9.92828ZM146.165 4.25C146.165 3.79713 146.096 3.44877 145.921 3.13525C145.747 2.82172 145.503 2.68238 145.155 2.68238C144.807 2.68238 144.528 2.85656 144.319 3.17008C144.11 3.48361 144.006 3.8668 144.006 4.28484C144.006 5.05123 144.249 5.74795 144.772 6.375C145.12 6.13115 145.434 5.85246 145.712 5.5041C146.026 5.15574 146.165 4.7377 146.165 4.25Z" fill="black"/>
</svg>
