<svg version="1.0" xmlns="http://www.w3.org/2000/svg"
 width="500.000000pt" height="39.000000pt" viewBox="0 0 500.000000 39.000000"
 preserveAspectRatio="xMidYMid meet">

<g transform="translate(0.000000,39.000000) scale(0.100000,-0.100000)"
fill="#000000" stroke="none">
<path d="M1705 371 c-62 -4 -105 -10 -97 -14 19 -13 17 -311 -3 -331 -14 -13
-2 -15 104 -18 l120 -3 21 53 c27 71 26 72 -14 20 -41 -54 -51 -58 -122 -58
l-54 0 0 86 0 85 48 -3 c44 -3 48 -5 59 -38 11 -33 12 -31 11 40 0 41 -3 66
-5 55 -9 -35 -24 -45 -69 -45 l-44 0 0 80 0 81 67 -3 c66 -3 68 -4 100 -46 18
-24 33 -40 33 -35 0 16 -34 103 -39 101 -4 -1 -55 -4 -116 -7z"/>
<path d="M2750 371 l-34 -6 27 -12 c14 -7 41 -32 58 -55 18 -24 29 -34 24 -23
-4 11 -14 39 -22 63 -8 23 -16 41 -16 41 -1 -1 -18 -4 -37 -8z"/>
<path d="M4505 371 c-62 -4 -105 -10 -97 -14 9 -6 12 -51 12 -167 0 -141 -2
-160 -17 -169 -13 -7 18 -11 105 -13 l122 -3 20 53 c24 64 25 74 3 42 -46 -69
-63 -80 -130 -80 l-63 0 0 85 0 85 44 0 c45 0 60 -10 69 -45 2 -11 5 12 5 50
0 39 -3 61 -5 50 -9 -35 -24 -45 -69 -45 l-44 0 0 80 0 80 64 0 c64 0 64 0
104 -47 l41 -48 -21 58 c-11 31 -24 56 -27 55 -3 -1 -55 -4 -116 -7z"/>
<path d="M4910 369 c-19 -3 -28 -7 -18 -8 9 0 35 -22 58 -48 l41 -47 -21 54
c-12 30 -22 55 -23 55 -1 1 -18 -2 -37 -6z"/>
<path d="M18 363 c9 -3 12 -47 12 -168 0 -145 -2 -165 -17 -174 -13 -7 0 -9
47 -9 41 0 56 3 40 7 -24 6 -25 11 -28 83 l-3 76 75 4 c90 4 126 29 126 85 0
79 -41 103 -172 102 -51 0 -87 -3 -80 -6z m176 -9 c26 -10 38 -75 24 -120
l-13 -39 -68 -3 -67 -3 0 86 0 85 54 0 c30 0 61 -3 70 -6z"/>
<path d="M358 358 c19 -19 17 -312 -3 -332 -14 -13 -3 -15 95 -18 60 -2 110
-3 110 -2 0 0 11 29 25 65 17 44 19 56 7 39 -53 -77 -71 -90 -128 -90 l-54 0
0 169 c0 126 3 171 13 174 6 3 -8 6 -32 6 -35 1 -42 -2 -33 -11z"/>
<path d="M785 331 c0 -22 3 -35 7 -28 7 12 10 7 61 -120 l26 -63 -79 0 -80 0
11 26 c5 15 8 29 6 31 -3 2 -15 -25 -28 -59 -13 -35 -34 -73 -47 -85 l-23 -21
46 0 c40 0 44 1 29 12 -13 10 -15 21 -10 49 l7 37 84 0 c83 0 85 0 100 -30 18
-35 19 -57 3 -63 -7 -2 11 -4 40 -4 41 -1 49 2 38 11 -9 6 -46 85 -83 176 -54
129 -73 166 -88 168 -18 2 -20 -3 -20 -37z"/>
<path d="M1113 360 c15 -10 17 -29 17 -165 0 -145 -1 -155 -21 -169 -20 -14
-19 -14 24 -14 45 0 45 0 26 19 -17 17 -19 34 -19 154 0 74 2 135 3 135 2 0
35 -70 73 -155 59 -134 72 -155 91 -155 25 0 28 7 14 29 -6 9 0 33 16 69 13
30 22 56 20 58 -2 3 -14 -19 -27 -48 -22 -52 -22 -52 -33 -28 -7 14 -37 81
-68 150 l-56 125 -39 3 c-31 2 -35 0 -21 -8z"/>
<path d="M1414 315 c-31 -71 -30 -86 1 -20 l24 50 0 -157 c1 -137 -1 -158 -16
-166 -12 -7 -1 -10 37 -10 38 0 49 3 37 10 -15 8 -17 30 -17 166 0 110 4 162
12 170 9 9 5 12 -21 12 -29 0 -34 -5 -57 -55z"/>
<path d="M2039 361 c9 -6 12 -18 7 -37 -5 -20 -4 -25 3 -15 8 12 11 9 17 -15
4 -16 22 -85 39 -154 26 -105 34 -125 51 -128 17 -2 21 3 20 30 0 18 4 42 8
53 6 15 4 15 -6 -3 -13 -21 -16 -14 -42 95 -48 195 -43 183 -79 183 -22 0 -28
-3 -18 -9z"/>
<path d="M2254 355 c12 -12 13 -22 5 -42 -14 -37 -4 -40 11 -3 7 17 22 37 34
45 19 14 18 15 -22 15 -39 0 -42 -2 -28 -15z"/>
<path d="M2620 347 c-52 -34 -75 -82 -75 -152 1 -170 152 -246 255 -128 l25
28 -28 -25 c-22 -19 -40 -25 -77 -25 -38 0 -54 6 -76 25 -83 77 -85 229 -2
280 18 11 28 20 22 20 -6 0 -26 -10 -44 -23z"/>
<path d="M3013 336 c0 -19 4 -33 8 -30 7 4 79 -158 79 -177 0 -5 -34 -9 -76
-9 -73 0 -75 1 -70 23 7 24 1 14 -36 -69 -11 -23 -29 -46 -41 -51 -18 -9 -12
-10 32 -11 39 0 50 3 38 10 -17 9 -22 43 -11 72 5 13 23 16 90 16 l84 0 15
-36 c11 -26 12 -40 5 -50 -9 -10 8 -12 81 -12 67 0 88 3 80 11 -6 6 -11 20
-11 31 -1 19 -3 18 -21 -6 -22 -30 -52 -36 -66 -15 -4 6 -38 84 -74 172 -52
125 -71 161 -87 163 -17 3 -20 -2 -19 -32z"/>
<path d="M3369 356 c8 -9 11 -19 8 -23 -4 -3 -3 -11 2 -17 4 -6 25 -77 46
-158 31 -122 41 -148 56 -148 13 0 18 7 17 28 -1 15 2 36 6 47 6 15 6 17 -3 5
-5 -8 -12 -12 -14 -10 -2 3 -20 68 -39 145 -33 138 -34 140 -63 143 -26 3 -27
2 -16 -12z"/>
<path d="M3583 345 c12 -24 13 -24 27 -6 8 10 22 21 30 24 8 3 -4 6 -27 6 -40
1 -41 1 -30 -24z"/>
<path d="M3708 364 c17 -8 17 -325 0 -342 -9 -9 6 -12 68 -10 54 1 64 3 32 5
l-48 4 0 170 0 169 56 0 c48 0 60 -4 84 -28 33 -34 45 -93 37 -183 -6 -65 -26
-105 -60 -119 -13 -5 -16 -9 -7 -9 26 -1 78 37 96 70 9 18 18 57 21 88 4 45 0
65 -19 100 -38 73 -64 86 -176 88 -53 2 -91 0 -84 -3z"/>
<path d="M4078 358 c8 -8 12 -60 12 -170 0 -139 -2 -158 -17 -167 -13 -8 12
-10 90 -11 59 0 110 0 114 -1 4 0 17 28 30 63 18 50 19 58 5 38 -55 -78 -71
-90 -128 -90 l-54 0 0 169 c0 126 3 171 13 174 6 3 -8 6 -32 6 -35 1 -42 -2
-33 -11z"/>
<path d="M4786 349 c-20 -16 -26 -29 -26 -61 0 -50 34 -85 111 -112 60 -22 99
-55 99 -84 0 -11 -9 -31 -21 -46 -16 -21 -29 -26 -63 -26 -49 0 -76 17 -118
74 -31 42 -32 39 -4 -43 12 -33 12 -33 88 -38 73 -4 78 -3 107 24 21 18 34 41
38 66 5 33 2 41 -29 70 -19 17 -59 40 -88 50 -94 33 -125 86 -74 126 15 12 22
21 17 21 -6 0 -22 -9 -37 -21z"/>
<path d="M2026 275 c-9 -26 -7 -32 5 -12 6 10 9 21 6 23 -2 3 -7 -2 -11 -11z"/>
<path d="M2991 259 c-6 -18 -9 -34 -7 -36 2 -2 9 10 15 28 6 18 9 34 7 36 -2
2 -9 -10 -15 -28z"/>
<path d="M766 265 c-9 -26 -7 -32 5 -12 6 10 9 21 6 23 -2 3 -7 -2 -11 -11z"/>
<path d="M3346 265 c-9 -26 -7 -32 5 -12 6 10 9 21 6 23 -2 3 -7 -2 -11 -11z"/>
<path d="M1372 215 c-17 -37 -14 -45 4 -12 9 16 14 31 11 33 -2 2 -9 -7 -15
-21z"/>
<path d="M2226 225 c-9 -26 -7 -32 5 -12 6 10 9 21 6 23 -2 3 -7 -2 -11 -11z"/>
<path d="M746 215 c-9 -26 -7 -32 5 -12 6 10 9 21 6 23 -2 3 -7 -2 -11 -11z"/>
<path d="M3546 215 c-9 -26 -7 -32 5 -12 6 10 9 21 6 23 -2 3 -7 -2 -11 -11z"/>
<path d="M2966 195 c-9 -26 -7 -32 5 -12 6 10 9 21 6 23 -2 3 -7 -2 -11 -11z"/>
<path d="M1976 145 c-9 -26 -7 -32 5 -12 6 10 9 21 6 23 -2 3 -7 -2 -11 -11z"/>
<path d="M3296 135 c-9 -26 -7 -32 5 -12 6 10 9 21 6 23 -2 3 -7 -2 -11 -11z"/>
<path d="M1941 56 c-8 -13 -23 -28 -35 -34 -17 -8 -13 -10 26 -10 43 0 46 1
33 15 -9 9 -13 23 -10 34 9 26 1 24 -14 -5z"/>
</g>
</svg>
