<svg xmlns="http://www.w3.org/2000/svg" xmlns:xlink="http://www.w3.org/1999/xlink">
    <symbol viewBox="0 0 256 256" fill="currentColor" id="arrow-right">
        <path d="m221.66 133.66-72 72a8 8 0 0 1-11.32-11.32L196.69 136H40a8 8 0 0 1 0-16h156.69l-58.35-58.34a8 8 0 0 1 11.32-11.32l72 72a8 8 0 0 1 0 11.32"/>
    </symbol>
    <symbol viewBox="0 0 256 256" fill="currentColor" id="calendar">
        <path d="M208 32h-24v-8a8 8 0 0 0-16 0v8H88v-8a8 8 0 0 0-16 0v8H48a16 16 0 0 0-16 16v160a16 16 0 0 0 16 16h160a16 16 0 0 0 16-16V48a16 16 0 0 0-16-16M72 48v8a8 8 0 0 0 16 0v-8h80v8a8 8 0 0 0 16 0v-8h24v32H48V48Zm136 160H48V96h160zm-96-88v64a8 8 0 0 1-16 0v-51.06l-4.42 2.22a8 8 0 0 1-7.16-14.32l16-8A8 8 0 0 1 112 120m59.16 30.45L152 176h16a8 8 0 0 1 0 16h-32a8 8 0 0 1-6.4-12.8l28.78-38.37a8 8 0 1 0-13.31-8.83 8 8 0 1 1-13.85-8A24 24 0 0 1 176 136a23.76 23.76 0 0 1-4.84 14.45"/>
    </symbol>
    <symbol viewBox="0 0 256 256" fill="currentColor" id="caret-down">
        <path d="m213.66 101.66-80 80a8 8 0 0 1-11.32 0l-80-80a8 8 0 0 1 11.32-11.32L128 164.69l74.34-74.35a8 8 0 0 1 11.32 11.32"/>
    </symbol>
    <symbol viewBox="0 0 256 256" fill="currentColor" id="caret-left">
        <path d="M165.66 202.34a8 8 0 0 1-11.32 11.32l-80-80a8 8 0 0 1 0-11.32l80-80a8 8 0 0 1 11.32 11.32L91.31 128Z"/>
    </symbol>
    <symbol viewBox="0 0 256 256" fill="currentColor" id="caret-right">
        <path d="m181.66 133.66-80 80a8 8 0 0 1-11.32-11.32L164.69 128 90.34 53.66a8 8 0 0 1 11.32-11.32l80 80a8 8 0 0 1 0 11.32"/>
    </symbol>
    <symbol viewBox="0 0 256 256" fill="currentColor" id="chat-fill">
        <path d="M232 64v128a16 16 0 0 1-16 16H83l-32.6 28.16-.09.07A15.9 15.9 0 0 1 40 240a16.05 16.05 0 0 1-6.79-1.52A15.84 15.84 0 0 1 24 224V64a16 16 0 0 1 16-16h176a16 16 0 0 1 16 16"/>
    </symbol>
    <symbol viewBox="0 0 256 256" fill="currentColor" id="dot">
        <path d="M140 128a12 12 0 1 1-12-12 12 12 0 0 1 12 12"/>
    </symbol>
    <symbol viewBox="0 0 256 256" fill="currentColor" id="envelope">
        <path d="M224 48H32a8 8 0 0 0-8 8v136a16 16 0 0 0 16 16h176a16 16 0 0 0 16-16V56a8 8 0 0 0-8-8m-96 85.15L52.57 64h150.86ZM98.71 128 40 181.81V74.19Zm11.84 10.85 12 11.05a8 8 0 0 0 10.82 0l12-11.05 58 53.15H52.57ZM157.29 128 216 74.18v107.64Z"/>
    </symbol>
    <symbol viewBox="0 0 256 256" fill="currentColor" id="handbag">
        <path d="m239.89 198.12-14.26-120a16 16 0 0 0-16-14.12H176a48 48 0 0 0-96 0H46.33a16 16 0 0 0-16 14.12l-14.26 120A16 16 0 0 0 20 210.6a16.13 16.13 0 0 0 12 5.4h191.92a16.13 16.13 0 0 0 12.08-5.4 16 16 0 0 0 3.89-12.48M128 32a32 32 0 0 1 32 32H96a32 32 0 0 1 32-32M32 200 46.33 80H80v24a8 8 0 0 0 16 0V80h64v24a8 8 0 0 0 16 0V80h33.75l14.17 120Z"/>
    </symbol>
    <symbol viewBox="0 0 256 256" fill="currentColor" id="heart">
        <path d="M178 40c-20.65 0-38.73 8.88-50 23.89C116.73 48.88 98.65 40 78 40a62.07 62.07 0 0 0-62 62c0 70 103.79 126.66 108.21 129a8 8 0 0 0 7.58 0C136.21 228.66 240 172 240 102a62.07 62.07 0 0 0-62-62m-50 174.8c-18.26-10.64-96-59.11-96-112.8a46.06 46.06 0 0 1 46-46c19.45 0 35.78 10.36 42.6 27a8 8 0 0 0 14.8 0c6.82-16.67 23.15-27 42.6-27a46.06 46.06 0 0 1 46 46c0 53.61-77.76 102.15-96 112.8"/>
    </symbol>
    <symbol viewBox="0 0 256 256" fill="currentColor" id="instagram">
        <path d="M128 80a48 48 0 1 0 48 48 48.05 48.05 0 0 0-48-48m0 80a32 32 0 1 1 32-32 32 32 0 0 1-32 32m48-136H80a56.06 56.06 0 0 0-56 56v96a56.06 56.06 0 0 0 56 56h96a56.06 56.06 0 0 0 56-56V80a56.06 56.06 0 0 0-56-56m40 152a40 40 0 0 1-40 40H80a40 40 0 0 1-40-40V80a40 40 0 0 1 40-40h96a40 40 0 0 1 40 40ZM192 76a12 12 0 1 1-12-12 12 12 0 0 1 12 12"/>
    </symbol>
    <symbol viewBox="0 0 256 256" fill="currentColor" id="list">
        <path d="M224 128a8 8 0 0 1-8 8H40a8 8 0 0 1 0-16h176a8 8 0 0 1 8 8M40 72h176a8 8 0 0 0 0-16H40a8 8 0 0 0 0 16m176 112H40a8 8 0 0 0 0 16h176a8 8 0 0 0 0-16"/>
    </symbol>
    <symbol viewBox="0 0 256 256" fill="currentColor" id="magnifying-glass">
        <path d="m229.66 218.34-50.07-50.06a88.11 88.11 0 1 0-11.31 11.31l50.06 50.07a8 8 0 0 0 11.32-11.32M40 112a72 72 0 1 1 72 72 72.08 72.08 0 0 1-72-72"/>
    </symbol>
    <symbol viewBox="0 0 256 256" fill="currentColor" id="map-pin">
        <path d="M128 64a40 40 0 1 0 40 40 40 40 0 0 0-40-40m0 64a24 24 0 1 1 24-24 24 24 0 0 1-24 24m0-112a88.1 88.1 0 0 0-88 88c0 31.4 14.51 64.68 42 96.25a254.2 254.2 0 0 0 41.45 38.3 8 8 0 0 0 9.18 0 254.2 254.2 0 0 0 41.37-38.3c27.45-31.57 42-64.85 42-96.25a88.1 88.1 0 0 0-88-88m0 206c-16.53-13-72-60.75-72-118a72 72 0 0 1 144 0c0 57.23-55.47 105-72 118"/>
    </symbol>
    <symbol viewBox="0 0 256 256" fill="currentColor" id="minus">
        <path d="M224 128a8 8 0 0 1-8 8H40a8 8 0 0 1 0-16h176a8 8 0 0 1 8 8"/>
    </symbol>
    <symbol viewBox="0 0 256 256" fill="currentColor" id="phone">
        <path d="m222.37 158.46-47.11-21.11-.13-.06a16 16 0 0 0-15.17 1.4 8 8 0 0 0-.75.56L134.87 160c-15.42-7.49-31.34-23.29-38.83-38.51l20.78-24.71c.2-.25.39-.5.57-.77a16 16 0 0 0 1.32-15.06v-.12L97.54 33.64a16 16 0 0 0-16.62-9.52A56.26 56.26 0 0 0 32 80c0 79.4 64.6 144 144 144a56.26 56.26 0 0 0 55.88-48.92 16 16 0 0 0-9.51-16.62M176 208A128.14 128.14 0 0 1 48 80a40.2 40.2 0 0 1 34.87-40 .6.6 0 0 0 0 .12l21 47-20.67 24.74a6 6 0 0 0-.57.77 16 16 0 0 0-1 15.7c9.06 18.53 27.73 37.06 46.46 46.11a16 16 0 0 0 15.75-1.14 8 8 0 0 0 .74-.56L168.89 152l47 21.05h.11A40.21 40.21 0 0 1 176 208"/>
    </symbol>
    <symbol viewBox="0 0 256 256" fill="currentColor" id="pinterest">
        <path d="M224 112c0 22.57-7.9 43.2-22.23 58.11C188.39 184 170.25 192 152 192c-17.88 0-29.82-5.86-37.43-12l-10.78 45.82A8 8 0 0 1 96 232a8.2 8.2 0 0 1-1.84-.21 8 8 0 0 1-6-9.62l32-136a8 8 0 0 1 15.58 3.66l-16.9 71.8C122 166 131.3 176 152 176c27.53 0 56-23.94 56-64a72 72 0 1 0-134.37 36 8 8 0 0 1-13.85 8A88 88 0 1 1 224 112"/>
    </symbol>
    <symbol viewBox="0 0 256 256" fill="currentColor" id="plus">
        <path d="M224 128a8 8 0 0 1-8 8h-80v80a8 8 0 0 1-16 0v-80H40a8 8 0 0 1 0-16h80V40a8 8 0 0 1 16 0v80h80a8 8 0 0 1 8 8"/>
    </symbol>
    <symbol viewBox="0 0 256 256" fill="currentColor" id="star">
        <path d="M239.18 97.26A16.38 16.38 0 0 0 224.92 86l-59-4.76-22.78-55.09a16.36 16.36 0 0 0-30.27 0L90.11 81.23 31.08 86a16.46 16.46 0 0 0-9.37 28.86l45 38.83L53 211.75a16.38 16.38 0 0 0 24.5 17.82l50.5-31.08 50.53 31.08A16.4 16.4 0 0 0 203 211.75l-13.76-58.07 45-38.83a16.43 16.43 0 0 0 4.94-17.59m-15.34 5.47-48.7 42a8 8 0 0 0-2.56 7.91l14.88 62.8a.37.37 0 0 1-.17.48c-.18.14-.23.11-.38 0l-54.72-33.65a8 8 0 0 0-8.38 0l-54.72 33.67c-.15.09-.19.12-.38 0a.37.37 0 0 1-.17-.48l14.88-62.8a8 8 0 0 0-2.56-7.91l-48.7-42c-.12-.1-.23-.19-.13-.5s.18-.27.33-.29l63.92-5.16a8 8 0 0 0 6.72-4.94l24.62-59.61c.08-.17.11-.25.35-.25s.27.08.35.25L153 91.86a8 8 0 0 0 6.75 4.92l63.92 5.16c.15 0 .24 0 .33.29s0 .4-.16.5"/>
    </symbol>
    <symbol viewBox="0 0 256 256" fill="currentColor" id="star-fill">
        <path d="m234.29 114.85-45 38.83L203 211.75a16.4 16.4 0 0 1-24.5 17.82L128 198.49l-50.53 31.08A16.4 16.4 0 0 1 53 211.75l13.76-58.07-45-38.83A16.46 16.46 0 0 1 31.08 86l59-4.76 22.76-55.08a16.36 16.36 0 0 1 30.27 0l22.75 55.08 59 4.76a16.46 16.46 0 0 1 9.37 28.86Z"/>
    </symbol>
    <symbol viewBox="0 0 256 256" fill="currentColor" id="star-half-fill">
        <path d="M239.18 97.26A16.38 16.38 0 0 0 224.92 86l-59-4.76-22.78-55.09a16.36 16.36 0 0 0-30.27 0L90.11 81.23 31.08 86a16.46 16.46 0 0 0-9.37 28.86l45 38.83L53 211.75a16.4 16.4 0 0 0 24.5 17.82l50.5-31.08 50.53 31.08A16.4 16.4 0 0 0 203 211.75l-13.76-58.07 45-38.83a16.43 16.43 0 0 0 4.94-17.59m-15.34 5.47-48.7 42a8 8 0 0 0-2.56 7.91l14.88 62.8a.37.37 0 0 1-.17.48c-.18.14-.23.11-.38 0l-54.72-33.65a8 8 0 0 0-4.19-1.17V32c.24 0 .27.08.35.26L153 91.86a8 8 0 0 0 6.75 4.92l63.91 5.16c.16 0 .25 0 .34.29s0 .4-.16.5"/>
    </symbol>
    <symbol viewBox="0 0 256 256" fill="currentColor" id="telegram">
        <path d="M228.88 26.19a9 9 0 0 0-9.16-1.57L17.06 103.93a14.22 14.22 0 0 0 2.43 27.21L72 141.45V200a15.92 15.92 0 0 0 10 14.83 15.91 15.91 0 0 0 17.51-3.73l25.32-26.26L165 220a15.88 15.88 0 0 0 10.51 4 16.3 16.3 0 0 0 5-.79 15.85 15.85 0 0 0 10.67-11.63L231.77 35a9 9 0 0 0-2.89-8.81m-61.14 36-89.59 64.16-49.6-9.73ZM88 200v-47.48l24.79 21.74Zm87.53 8-82.68-72.5 119-85.29Z"/>
    </symbol>
    <symbol viewBox="0 0 256 256" fill="currentColor" id="trash">
        <path d="M216 48h-40v-8a24 24 0 0 0-24-24h-48a24 24 0 0 0-24 24v8H40a8 8 0 0 0 0 16h8v144a16 16 0 0 0 16 16h128a16 16 0 0 0 16-16V64h8a8 8 0 0 0 0-16M96 40a8 8 0 0 1 8-8h48a8 8 0 0 1 8 8v8H96Zm96 168H64V64h128Zm-80-104v64a8 8 0 0 1-16 0v-64a8 8 0 0 1 16 0m48 0v64a8 8 0 0 1-16 0v-64a8 8 0 0 1 16 0"/>
    </symbol>
    <symbol viewBox="0 0 256 256" fill="currentColor" id="user">
        <path d="M230.92 212c-15.23-26.33-38.7-45.21-66.09-54.16a72 72 0 1 0-73.66 0c-27.39 8.94-50.86 27.82-66.09 54.16a8 8 0 1 0 13.85 8c18.84-32.56 52.14-52 89.07-52s70.23 19.44 89.07 52a8 8 0 1 0 13.85-8M72 96a56 56 0 1 1 56 56 56.06 56.06 0 0 1-56-56"/>
    </symbol>
    <symbol viewBox="0 0 256 256" fill="currentColor" id="x">
        <path d="M205.66 194.34a8 8 0 0 1-11.32 11.32L128 139.31l-66.34 66.35a8 8 0 0 1-11.32-11.32L116.69 128 50.34 61.66a8 8 0 0 1 11.32-11.32L128 116.69l66.34-66.35a8 8 0 0 1 11.32 11.32L139.31 128Z"/>
    </symbol>
    <symbol viewBox="0 0 256 256" fill="currentColor" id="сheck">
        <path d="m229.66 77.66-128 128a8 8 0 0 1-11.32 0l-56-56a8 8 0 0 1 11.32-11.32L96 188.69 218.34 66.34a8 8 0 0 1 11.32 11.32"/>
    </symbol>
</svg>