<svg xmlns="http://www.w3.org/2000/svg" xmlns:xlink="http://www.w3.org/1999/xlink"><symbol viewBox="0 0 256 256" fill="currentColor" id="arrow-right"><path d="m221.66 133.66-72 72a8 8 0 0 1-11.32-11.32L196.69 136H40a8 8 0 0 1 0-16h156.69l-58.35-58.34a8 8 0 0 1 11.32-11.32l72 72a8 8 0 0 1 0 11.32"/></symbol><symbol viewBox="0 0 256 256" fill="currentColor" id="arrow-square-out"><path d="M224 104a8 8 0 0 1-16 0V59.32l-66.33 66.34a8 8 0 0 1-11.32-11.32L196.68 48H152a8 8 0 0 1 0-16h64a8 8 0 0 1 8 8Zm-40 24a8 8 0 0 0-8 8v72H48V80h72a8 8 0 0 0 0-16H48a16 16 0 0 0-16 16v128a16 16 0 0 0 16 16h128a16 16 0 0 0 16-16v-72a8 8 0 0 0-8-8"/></symbol><symbol viewBox="0 0 256 256" fill="currentColor" id="calendar"><path d="M208 32h-24v-8a8 8 0 0 0-16 0v8H88v-8a8 8 0 0 0-16 0v8H48a16 16 0 0 0-16 16v160a16 16 0 0 0 16 16h160a16 16 0 0 0 16-16V48a16 16 0 0 0-16-16M72 48v8a8 8 0 0 0 16 0v-8h80v8a8 8 0 0 0 16 0v-8h24v32H48V48Zm136 160H48V96h160zm-96-88v64a8 8 0 0 1-16 0v-51.06l-4.42 2.22a8 8 0 0 1-7.16-14.32l16-8A8 8 0 0 1 112 120m59.16 30.45L152 176h16a8 8 0 0 1 0 16h-32a8 8 0 0 1-6.4-12.8l28.78-38.37a8 8 0 1 0-13.31-8.83 8 8 0 1 1-13.85-8A24 24 0 0 1 176 136a23.76 23.76 0 0 1-4.84 14.45"/></symbol><symbol viewBox="0 0 256 256" fill="currentColor" id="caret-down"><path d="m213.66 101.66-80 80a8 8 0 0 1-11.32 0l-80-80a8 8 0 0 1 11.32-11.32L128 164.69l74.34-74.35a8 8 0 0 1 11.32 11.32"/></symbol><symbol viewBox="0 0 256 256" fill="currentColor" id="caret-left"><path d="M165.66 202.34a8 8 0 0 1-11.32 11.32l-80-80a8 8 0 0 1 0-11.32l80-80a8 8 0 0 1 11.32 11.32L91.31 128Z"/></symbol><symbol viewBox="0 0 256 256" fill="currentColor" id="caret-right"><path d="m181.66 133.66-80 80a8 8 0 0 1-11.32-11.32L164.69 128 90.34 53.66a8 8 0 0 1 11.32-11.32l80 80a8 8 0 0 1 0 11.32"/></symbol><symbol viewBox="0 0 256 256" fill="currentColor" id="chat-fill"><path d="M232 64v128a16 16 0 0 1-16 16H83l-32.6 28.16-.09.07A15.9 15.9 0 0 1 40 240a16.05 16.05 0 0 1-6.79-1.52A15.84 15.84 0 0 1 24 224V64a16 16 0 0 1 16-16h176a16 16 0 0 1 16 16"/></symbol><symbol viewBox="0 0 256 256" fill="currentColor" id="clock"><path d="M128 24a104 104 0 1 0 104 104A104.11 104.11 0 0 0 128 24m0 192a88 88 0 1 1 88-88 88.1 88.1 0 0 1-88 88m64-88a8 8 0 0 1-8 8h-56a8 8 0 0 1-8-8V72a8 8 0 0 1 16 0v48h48a8 8 0 0 1 8 8"/></symbol><symbol fill="currentColor" viewBox="0 0 420 110" id="demud"><path d="M73.125 59.976c0 6.912-1.024 13.397-3.072 19.456-2.048 6.059-4.864 11.307-8.448 15.744-3.499 4.352-7.595 7.808-12.288 10.368-4.693 2.475-9.728 3.627-15.104 3.456H.165V13h26.112c7.51 0 14.165 1.11 19.968 3.328 5.803 2.133 10.667 5.248 14.592 9.344 4.01 4.01 7.04 8.917 9.088 14.72 2.133 5.803 3.2 12.33 3.2 19.584ZM22.309 21.704c-1.621 0-2.944.128-3.968.384-.939.17-1.664.597-2.176 1.28-.939 2.219-1.408 5.717-1.408 10.496V82.76c0 4.95.085 8.875.256 11.776.256 2.901 1.067 5.035 2.432 6.4 6.485 1.109 11.99 1.323 16.512.64 4.608-.683 8.405-1.963 11.392-3.84 2.987-1.963 5.333-4.395 7.04-7.296a36.325 36.325 0 0 0 3.84-9.216 50.539 50.539 0 0 0 1.536-9.984c.17-3.413.256-6.613.256-9.6 0-12.97-3.03-22.87-9.088-29.696-5.973-6.827-14.848-10.24-26.624-10.24Zm125.103 80.256v7.296h-27.008c-11.947-.085-21.077-3.115-27.392-9.088-6.315-5.973-9.472-14.123-9.472-24.448V13h64v7.04h-40.832c-2.048.256-3.669.81-4.864 1.664-1.109.853-1.963 2.09-2.56 3.712-.512 1.536-.81 3.541-.896 6.016a265.935 265.935 0 0 0-.128 8.96V54.6h34.944v5.888H98.26v19.328c0 4.267.64 7.808 1.92 10.624 1.365 2.816 3.072 5.12 5.12 6.912a18.918 18.918 0 0 0 7.168 3.584 31.633 31.633 0 0 0 7.936 1.024h27.008Zm63.141-81.536v68.992h-14.72V20.808c-2.816.512-5.675 1.323-8.576 2.432a32.424 32.424 0 0 0-7.808 4.096 21.712 21.712 0 0 0-5.888 6.272c-1.451 2.39-2.176 5.248-2.176 8.576V109h-14.72V46.152c0-4.437 1.024-8.49 3.072-12.16 2.133-3.755 4.949-7.04 8.448-9.856 3.584-2.816 7.723-5.12 12.416-6.912 4.693-1.877 9.6-3.2 14.72-3.968-.085-.341-.128-1.152-.128-2.432.085-1.365.171-2.773.256-4.224.085-1.536.128-2.944.128-4.224 0-1.28-.043-2.048-.128-2.304h15.616c-.085.256-.128 1.024-.128 2.304v3.968c.085 1.45.128 2.816.128 4.096v2.304c5.205.512 10.155 1.664 14.848 3.456 4.779 1.707 9.003 4.01 12.672 6.912 3.669 2.901 6.571 6.315 8.704 10.24 2.219 3.84 3.328 8.107 3.328 12.8v62.976h-14.72V42.184c0-3.584-.811-6.656-2.432-9.216a21.963 21.963 0 0 0-6.144-6.4 28.367 28.367 0 0 0-8.192-4.096c-2.987-1.024-5.845-1.707-8.576-2.048Zm110.379 58.88V13.128h14.72v62.208c0 10.41-3.243 18.645-9.728 24.704-6.4 5.973-15.701 8.96-27.904 8.96-5.803 0-10.965-.768-15.488-2.304-4.437-1.621-8.235-3.883-11.392-6.784s-5.547-6.4-7.168-10.496c-1.621-4.181-2.432-8.875-2.432-14.08V13.128h14.72v66.176c0 4.267.64 7.85 1.92 10.752 1.365 2.901 3.115 5.205 5.248 6.912a18.914 18.914 0 0 0 7.168 3.584c2.731.683 5.419.981 8.064.896a28 28 0 0 0 7.936-.896 20.518 20.518 0 0 0 7.168-3.712c2.133-1.707 3.84-3.968 5.12-6.784 1.365-2.901 2.048-6.485 2.048-10.752ZM419.5 59.976c0 6.912-1.024 13.397-3.072 19.456-2.048 6.059-4.864 11.307-8.448 15.744-3.499 4.352-7.595 7.808-12.288 10.368-4.693 2.475-9.728 3.627-15.104 3.456H346.54V13h26.112c7.509 0 14.165 1.11 19.968 3.328 5.803 2.133 10.667 5.248 14.592 9.344 4.011 4.01 7.04 8.917 9.088 14.72 2.133 5.803 3.2 12.33 3.2 19.584Zm-50.816-38.272c-1.621 0-2.944.128-3.968.384-.939.17-1.664.597-2.176 1.28-.939 2.219-1.408 5.717-1.408 10.496V82.76c0 4.95.085 8.875.256 11.776.256 2.901 1.067 5.035 2.432 6.4 6.485 1.109 11.989 1.323 16.512.64 4.608-.683 8.405-1.963 11.392-3.84 2.987-1.963 5.333-4.395 7.04-7.296a36.304 36.304 0 0 0 3.84-9.216 50.583 50.583 0 0 0 1.536-9.984c.171-3.413.256-6.613.256-9.6 0-12.97-3.029-22.87-9.088-29.696-5.973-6.827-14.848-10.24-26.624-10.24Z"/></symbol><symbol viewBox="0 0 256 256" fill="currentColor" id="dot-fill"><path d="M128 80a48 48 0 1 0 48 48 48 48 0 0 0-48-48m0 60a12 12 0 1 1 12-12 12 12 0 0 1-12 12"/></symbol><symbol viewBox="0 0 256 256" fill="currentColor" id="envelope"><path d="M224 48H32a8 8 0 0 0-8 8v136a16 16 0 0 0 16 16h176a16 16 0 0 0 16-16V56a8 8 0 0 0-8-8m-96 85.15L52.57 64h150.86ZM98.71 128 40 181.81V74.19Zm11.84 10.85 12 11.05a8 8 0 0 0 10.82 0l12-11.05 58 53.15H52.57ZM157.29 128 216 74.18v107.64Z"/></symbol><symbol viewBox="0 0 256 256" fill="currentColor" id="fire-thin"><path d="M179.94 152.67a53.51 53.51 0 0 1-43.28 43.27 3.7 3.7 0 0 1-.66.06 4 4 0 0 1-.66-7.94c18.18-3.06 33.63-18.51 36.72-36.73a4 4 0 0 1 7.88 1.34M212 144a84 84 0 0 1-168 0c0-27 10.71-54.75 31.84-82.43a4 4 0 0 1 6-.44l28.55 27.7 24.15-66.2a4 4 0 0 1 6.31-1.71C162.22 38.69 212 86.24 212 144m-8 0c0-50.82-41.73-93.91-63.94-113.23l-24.3 66.6a4 4 0 0 1-6.55 1.5L79.5 70C61.25 95.07 52 119.93 52 144a76 76 0 0 0 152 0"/></symbol><symbol viewBox="0 0 256 256" fill="currentColor" id="flame-thin"><path d="M170.9 54.24a216.8 216.8 0 0 0-40.84-33.67 4 4 0 0 0-4.12 0A216.8 216.8 0 0 0 85.1 54.24C58.21 82.48 44 113.51 44 144a84 84 0 0 0 168 0c0-30.49-14.21-61.52-41.1-89.76M92 184c0-32.11 28.07-53.75 36-59.21 7.93 5.47 36 27.1 36 59.21a36 36 0 0 1-72 0m69.94 28A43.82 43.82 0 0 0 172 184c0-41.78-40.23-66.4-41.94-67.43a4 4 0 0 0-4.12 0C124.23 117.6 84 142.22 84 184a43.82 43.82 0 0 0 10.06 28A76.07 76.07 0 0 1 52 144c0-62.48 63.64-107.17 76-115.26 12.36 8.09 76 52.78 76 115.26a76.07 76.07 0 0 1-42.06 68"/></symbol><symbol viewBox="0 0 256 256" fill="currentColor" id="handbag"><path d="m239.89 198.12-14.26-120a16 16 0 0 0-16-14.12H176a48 48 0 0 0-96 0H46.33a16 16 0 0 0-16 14.12l-14.26 120A16 16 0 0 0 20 210.6a16.13 16.13 0 0 0 12 5.4h191.92a16.13 16.13 0 0 0 12.08-5.4 16 16 0 0 0 3.89-12.48M128 32a32 32 0 0 1 32 32H96a32 32 0 0 1 32-32M32 200 46.33 80H80v24a8 8 0 0 0 16 0V80h64v24a8 8 0 0 0 16 0V80h33.75l14.17 120Z"/></symbol><symbol viewBox="0 0 256 256" fill="currentColor" id="heart"><path d="M178 40c-20.65 0-38.73 8.88-50 23.89C116.73 48.88 98.65 40 78 40a62.07 62.07 0 0 0-62 62c0 70 103.79 126.66 108.21 129a8 8 0 0 0 7.58 0C136.21 228.66 240 172 240 102a62.07 62.07 0 0 0-62-62m-50 174.8c-18.26-10.64-96-59.11-96-112.8a46.06 46.06 0 0 1 46-46c19.45 0 35.78 10.36 42.6 27a8 8 0 0 0 14.8 0c6.82-16.67 23.15-27 42.6-27a46.06 46.06 0 0 1 46 46c0 53.61-77.76 102.15-96 112.8"/></symbol><symbol viewBox="0 0 256 256" fill="currentColor" id="house-thin"><path d="m216.49 111.51-80-80a12 12 0 0 0-17 0l-80 80A12 12 0 0 0 36 120v96a4 4 0 0 0 4 4h64a4 4 0 0 0 4-4v-60h40v60a4 4 0 0 0 4 4h64a4 4 0 0 0 4-4v-96a12 12 0 0 0-3.51-8.49M212 212h-56v-60a4 4 0 0 0-4-4h-48a4 4 0 0 0-4 4v60H44v-92a4 4 0 0 1 1.17-2.83l80-80a4 4 0 0 1 5.66 0l80 80A4 4 0 0 1 212 120Z"/></symbol><symbol viewBox="0 0 256 256" fill="currentColor" id="instagram"><path d="M128 80a48 48 0 1 0 48 48 48.05 48.05 0 0 0-48-48m0 80a32 32 0 1 1 32-32 32 32 0 0 1-32 32m48-136H80a56.06 56.06 0 0 0-56 56v96a56.06 56.06 0 0 0 56 56h96a56.06 56.06 0 0 0 56-56V80a56.06 56.06 0 0 0-56-56m40 152a40 40 0 0 1-40 40H80a40 40 0 0 1-40-40V80a40 40 0 0 1 40-40h96a40 40 0 0 1 40 40ZM192 76a12 12 0 1 1-12-12 12 12 0 0 1 12 12"/></symbol><symbol viewBox="0 0 256 256" fill="currentColor" id="list"><path d="M224 128a8 8 0 0 1-8 8H40a8 8 0 0 1 0-16h176a8 8 0 0 1 8 8M40 72h176a8 8 0 0 0 0-16H40a8 8 0 0 0 0 16m176 112H40a8 8 0 0 0 0 16h176a8 8 0 0 0 0-16"/></symbol><symbol viewBox="0 0 256 256" fill="currentColor" id="magnifying-glass"><path d="m229.66 218.34-50.07-50.06a88.11 88.11 0 1 0-11.31 11.31l50.06 50.07a8 8 0 0 0 11.32-11.32M40 112a72 72 0 1 1 72 72 72.08 72.08 0 0 1-72-72"/></symbol><symbol viewBox="0 0 256 256" fill="currentColor" id="map-pin"><path d="M128 64a40 40 0 1 0 40 40 40 40 0 0 0-40-40m0 64a24 24 0 1 1 24-24 24 24 0 0 1-24 24m0-112a88.1 88.1 0 0 0-88 88c0 31.4 14.51 64.68 42 96.25a254.2 254.2 0 0 0 41.45 38.3 8 8 0 0 0 9.18 0 254.2 254.2 0 0 0 41.37-38.3c27.45-31.57 42-64.85 42-96.25a88.1 88.1 0 0 0-88-88m0 206c-16.53-13-72-60.75-72-118a72 72 0 0 1 144 0c0 57.23-55.47 105-72 118"/></symbol><symbol viewBox="0 0 256 256" fill="currentColor" id="minus"><path d="M224 128a8 8 0 0 1-8 8H40a8 8 0 0 1 0-16h176a8 8 0 0 1 8 8"/></symbol><symbol viewBox="0 0 256 256" fill="currentColor" id="phone"><path d="m222.37 158.46-47.11-21.11-.13-.06a16 16 0 0 0-15.17 1.4 8 8 0 0 0-.75.56L134.87 160c-15.42-7.49-31.34-23.29-38.83-38.51l20.78-24.71c.2-.25.39-.5.57-.77a16 16 0 0 0 1.32-15.06v-.12L97.54 33.64a16 16 0 0 0-16.62-9.52A56.26 56.26 0 0 0 32 80c0 79.4 64.6 144 144 144a56.26 56.26 0 0 0 55.88-48.92 16 16 0 0 0-9.51-16.62M176 208A128.14 128.14 0 0 1 48 80a40.2 40.2 0 0 1 34.87-40 .6.6 0 0 0 0 .12l21 47-20.67 24.74a6 6 0 0 0-.57.77 16 16 0 0 0-1 15.7c9.06 18.53 27.73 37.06 46.46 46.11a16 16 0 0 0 15.75-1.14 8 8 0 0 0 .74-.56L168.89 152l47 21.05h.11A40.21 40.21 0 0 1 176 208"/></symbol><symbol viewBox="0 0 256 256" fill="currentColor" id="pinterest"><path d="M224 112c0 22.57-7.9 43.2-22.23 58.11C188.39 184 170.25 192 152 192c-17.88 0-29.82-5.86-37.43-12l-10.78 45.82A8 8 0 0 1 96 232a8.2 8.2 0 0 1-1.84-.21 8 8 0 0 1-6-9.62l32-136a8 8 0 0 1 15.58 3.66l-16.9 71.8C122 166 131.3 176 152 176c27.53 0 56-23.94 56-64a72 72 0 1 0-134.37 36 8 8 0 0 1-13.85 8A88 88 0 1 1 224 112"/></symbol><symbol viewBox="0 0 256 256" fill="currentColor" id="plus"><path d="M224 128a8 8 0 0 1-8 8h-80v80a8 8 0 0 1-16 0v-80H40a8 8 0 0 1 0-16h80V40a8 8 0 0 1 16 0v80h80a8 8 0 0 1 8 8"/></symbol><symbol viewBox="0 0 256 256" fill="currentColor" id="potted-plant-thin"><path d="M122.83 138.83 145 116.7c9 4.89 18.06 7.35 26.81 7.35a45.57 45.57 0 0 0 23.87-6.74c22.42-13.58 34.41-45.45 32.07-85.26a4 4 0 0 0-3.75-3.76c-39.81-2.35-71.68 9.65-85.26 32.07-9.21 15.2-9 33.09.61 50.68L120 130.34l-17.06-17.06c6.66-12.78 6.71-26.2 0-37.22C92.89 59.4 69.33 50.49 40 52.21A4 4 0 0 0 36.21 56c-1.73 29.36 7.19 52.92 23.85 63A34.3 34.3 0 0 0 78 124a42 42 0 0 0 19.34-5l17 17.06-12 12H56a4 4 0 0 0 0 8h12.79L82.7 218.6a11.93 11.93 0 0 0 11.72 9.4h67.17a11.93 11.93 0 0 0 11.71-9.4l13.91-62.6H200a4 4 0 0 0 0-8h-86.34zm22.7-74.32c11.62-19.2 39.27-29.71 74.37-28.41 1.29 35.1-9.21 62.74-28.41 74.37-13.08 7.92-28.77 7.32-44.29-1.68-8.99-15.51-9.59-31.2-1.67-44.28m-50.48 46.54c-10.84 6.19-21.76 6.59-30.84 1.08C50.78 104 43.35 84.68 44 60c24.64-.69 44 6.74 52.1 20.17 5.54 9.12 5.14 20.04-1.05 30.88m84 45-13.53 60.87a4 4 0 0 1-3.9 3.13h-67.2a4 4 0 0 1-3.91-3.13L77 156Z"/></symbol><symbol viewBox="0 0 256 256" fill="currentColor" id="star"><path d="M239.18 97.26A16.38 16.38 0 0 0 224.92 86l-59-4.76-22.78-55.09a16.36 16.36 0 0 0-30.27 0L90.11 81.23 31.08 86a16.46 16.46 0 0 0-9.37 28.86l45 38.83L53 211.75a16.38 16.38 0 0 0 24.5 17.82l50.5-31.08 50.53 31.08A16.4 16.4 0 0 0 203 211.75l-13.76-58.07 45-38.83a16.43 16.43 0 0 0 4.94-17.59m-15.34 5.47-48.7 42a8 8 0 0 0-2.56 7.91l14.88 62.8a.37.37 0 0 1-.17.48c-.18.14-.23.11-.38 0l-54.72-33.65a8 8 0 0 0-8.38 0l-54.72 33.67c-.15.09-.19.12-.38 0a.37.37 0 0 1-.17-.48l14.88-62.8a8 8 0 0 0-2.56-7.91l-48.7-42c-.12-.1-.23-.19-.13-.5s.18-.27.33-.29l63.92-5.16a8 8 0 0 0 6.72-4.94l24.62-59.61c.08-.17.11-.25.35-.25s.27.08.35.25L153 91.86a8 8 0 0 0 6.75 4.92l63.92 5.16c.15 0 .24 0 .33.29s0 .4-.16.5"/></symbol><symbol viewBox="0 0 256 256" fill="currentColor" id="star-fill"><path d="m234.29 114.85-45 38.83L203 211.75a16.4 16.4 0 0 1-24.5 17.82L128 198.49l-50.53 31.08A16.4 16.4 0 0 1 53 211.75l13.76-58.07-45-38.83A16.46 16.46 0 0 1 31.08 86l59-4.76 22.76-55.08a16.36 16.36 0 0 1 30.27 0l22.75 55.08 59 4.76a16.46 16.46 0 0 1 9.37 28.86Z"/></symbol><symbol viewBox="0 0 256 256" fill="currentColor" id="star-half-fill"><path d="M239.18 97.26A16.38 16.38 0 0 0 224.92 86l-59-4.76-22.78-55.09a16.36 16.36 0 0 0-30.27 0L90.11 81.23 31.08 86a16.46 16.46 0 0 0-9.37 28.86l45 38.83L53 211.75a16.4 16.4 0 0 0 24.5 17.82l50.5-31.08 50.53 31.08A16.4 16.4 0 0 0 203 211.75l-13.76-58.07 45-38.83a16.43 16.43 0 0 0 4.94-17.59m-15.34 5.47-48.7 42a8 8 0 0 0-2.56 7.91l14.88 62.8a.37.37 0 0 1-.17.48c-.18.14-.23.11-.38 0l-54.72-33.65a8 8 0 0 0-4.19-1.17V32c.24 0 .27.08.35.26L153 91.86a8 8 0 0 0 6.75 4.92l63.91 5.16c.16 0 .25 0 .34.29s0 .4-.16.5"/></symbol><symbol viewBox="0 0 256 256" fill="currentColor" id="telegram"><path d="M228.88 26.19a9 9 0 0 0-9.16-1.57L17.06 103.93a14.22 14.22 0 0 0 2.43 27.21L72 141.45V200a15.92 15.92 0 0 0 10 14.83 15.91 15.91 0 0 0 17.51-3.73l25.32-26.26L165 220a15.88 15.88 0 0 0 10.51 4 16.3 16.3 0 0 0 5-.79 15.85 15.85 0 0 0 10.67-11.63L231.77 35a9 9 0 0 0-2.89-8.81m-61.14 36-89.59 64.16-49.6-9.73ZM88 200v-47.48l24.79 21.74Zm87.53 8-82.68-72.5 119-85.29Z"/></symbol><symbol viewBox="0 0 256 256" fill="currentColor" id="trash"><path d="M216 48h-40v-8a24 24 0 0 0-24-24h-48a24 24 0 0 0-24 24v8H40a8 8 0 0 0 0 16h8v144a16 16 0 0 0 16 16h128a16 16 0 0 0 16-16V64h8a8 8 0 0 0 0-16M96 40a8 8 0 0 1 8-8h48a8 8 0 0 1 8 8v8H96Zm96 168H64V64h128Zm-80-104v64a8 8 0 0 1-16 0v-64a8 8 0 0 1 16 0m48 0v64a8 8 0 0 1-16 0v-64a8 8 0 0 1 16 0"/></symbol><symbol viewBox="0 0 256 256" fill="currentColor" id="user"><path d="M230.92 212c-15.23-26.33-38.7-45.21-66.09-54.16a72 72 0 1 0-73.66 0c-27.39 8.94-50.86 27.82-66.09 54.16a8 8 0 1 0 13.85 8c18.84-32.56 52.14-52 89.07-52s70.23 19.44 89.07 52a8 8 0 1 0 13.85-8M72 96a56 56 0 1 1 56 56 56.06 56.06 0 0 1-56-56"/></symbol><symbol viewBox="0 0 256 256" fill="currentColor" id="x"><path d="M205.66 194.34a8 8 0 0 1-11.32 11.32L128 139.31l-66.34 66.35a8 8 0 0 1-11.32-11.32L116.69 128 50.34 61.66a8 8 0 0 1 11.32-11.32L128 116.69l66.34-66.35a8 8 0 0 1 11.32 11.32L139.31 128Z"/></symbol><symbol viewBox="0 0 256 256" fill="currentColor" id="сheck"><path d="m229.66 77.66-128 128a8 8 0 0 1-11.32 0l-56-56a8 8 0 0 1 11.32-11.32L96 188.69 218.34 66.34a8 8 0 0 1 11.32 11.32"/></symbol></svg>