<svg width="500" height="500" viewBox="0 0 500 500" fill="none" xmlns="http://www.w3.org/2000/svg">
<rect width="500" height="500" fill="white"/>
<path d="M273.38 151.88V345.92H231.98V152.96C224.06 154.4 216.02 156.68 207.86 159.8C199.94 162.68 192.62 166.52 185.9 171.32C179.18 176.12 173.66 182 169.34 188.96C165.26 195.68 163.22 203.72 163.22 213.08V401H121.82V224.24C121.82 211.76 124.7 200.36 130.46 190.04C136.46 179.48 144.38 170.24 154.22 162.32C164.3 154.4 175.94 147.92 189.14 142.88C202.34 137.6 216.14 133.88 230.54 131.72C230.3 130.76 230.18 128.48 230.18 124.88C230.42 121.04 230.66 117.08 230.9 113C231.14 108.68 231.26 104.72 231.26 101.12C231.26 97.52 231.14 95.36 230.9 94.64H274.82C274.58 95.36 274.46 97.52 274.46 101.12C274.46 104.48 274.46 108.2 274.46 112.28C274.7 116.36 274.82 120.2 274.82 123.8C274.82 127.4 274.82 129.56 274.82 130.28C289.46 131.72 303.38 134.96 316.58 140C330.02 144.8 341.9 151.28 352.22 159.44C362.54 167.6 370.7 177.2 376.7 188.24C382.94 199.04 386.06 211.04 386.06 224.24V401.36H344.66V213.08C344.66 203 342.38 194.36 337.82 187.16C333.26 179.96 327.5 173.96 320.54 169.16C313.58 164.12 305.9 160.28 297.5 157.64C289.1 154.76 281.06 152.84 273.38 151.88Z" fill="black"/>
</svg>
